<?xml version="1.0" encoding="UTF-8"?>
<svg id="Ebene_2" xmlns="http://www.w3.org/2000/svg" version="1.1" viewBox="0 0 2831.6 335.8">
  <!-- Generator: Adobe Illustrator 29.2.1, SVG Export Plug-In . SVG Version: 2.1.0 Build 116)  -->
  <defs>
    <style>
      .st0 {
        fill: #a5292a;
      }
    </style>
  </defs>
  <path class="st0" d="M.9,296.6c-.8-.5-1.1-1.5-.8-2.4.9-2.6,3.2-4.4,5.2-6.2,8.5-6.8,18.2-11.8,27.8-16.9,38.8-19.6,79.6-34.8,120.5-49.1,439.5-145.6,924.1-162.3,1369.7-33.3,109.9,29.8,222,72.2,330.9,105.4,61.6,18.2,125.6,31.6,190,27,113.1-9.7,236-91.3,303.9-180.3,16.8-23.2,36.3-54,33.4-83.3-.9-9.2-4-18.6-9.9-25.6-17.3-20.4-48.2-19.7-71.5-10.5-25,9.6-45.5,31.1-51.5,57.5,0,0-3.4,14.2-3.4,14.2,0,0-7.4-12.1-7.4-12.1-17.3-24.5-45.6-53.9-77.2-54.6-22.8-.4-40.6,16.1-53.3,33.8-2.6,3.7-5.3,7.4-6.8,11.7-8.6,25.4,4.2,55.1,17.2,77.3,74.7,117.5,224.1,166.1,358.2,158.9,114.5-4.4,228.7-48.2,311.1-129,16.4-16.1,31.9-33.4,44.6-52.6-6.1,9.8-13.2,18.9-20.5,27.8-81.9,98.5-208,153.4-334.8,159.9-137,9-289.9-40-367.4-159.6-16.1-26.6-32.1-65.7-14.6-95.3,35.9-56,84.2-58.4,130.7-12.2,7.4,7.4,14.1,15.3,20.2,23.7.9,1.2,1.7,2.4,2.6,3.8,0,0-10.8,2-10.8,2,7.5-43,49-74.6,91.7-76.3,29.9-1.5,58.3,13.4,66.4,43.9,14,49.5-31.1,106.2-62.8,140.3-75.4,78.4-187.5,146.8-298.3,151.2-92,3-180.4-27.2-266.2-56.4-107.8-37.7-220.5-75.5-331-103.1-420-107.6-871.1-85.8-1282.9,47.1-41,14-81.9,29-120.8,48.3-9.6,5-19.3,10-27.9,16.7-2,1.7-4.3,3.5-5.2,6.1-.3.9,0,1.9.8,2.4h0Z"/>
</svg>